<!DOCTYPE svg PUBLIC "-//W3C//DTD SVG 1.1//EN" "http://www.w3.org/Graphics/SVG/1.1/DTD/svg11.dtd">
<!-- Uploaded to: SVG Repo, www.svgrepo.com, Transformed by: SVG Repo Mixer Tools -->
<svg fill="#ffffff" version="1.1" id="Capa_1" xmlns="http://www.w3.org/2000/svg" xmlns:xlink="http://www.w3.org/1999/xlink" width="800px" height="800px" viewBox="0 0 44.339 44.339" xml:space="preserve" stroke="#ffffff">
<g id="SVGRepo_bgCarrier" stroke-width="0"/>
<g id="SVGRepo_tracerCarrier" stroke-linecap="round" stroke-linejoin="round"/>
<g id="SVGRepo_iconCarrier"> <g> <g> <path d="M18.451,21.099c0.52,2.854,0.902,6.529,1.033,11.246c-5.363,0.634-9.247,3-9.247,5.912c0,3.41,5.326,6.082,12.125,6.082 c6.801,0,12.126-2.672,12.126-6.082c0-2.893-3.827-5.241-9.131-5.896c0.19-2.437,0.459-4.508,0.781-6.267 c2.581-0.17,12.934-1.016,15.729-3.812c2.297-2.296,2.008-5.98,1.642-10.646c-0.152-1.944-0.312-3.955-0.312-6.128 c0-0.217-0.142-0.409-0.346-0.476c-0.207-0.068-0.436,0.007-0.562,0.183c-0.037,0.051-3.782,5.118-11.133,5.118 c-1.949,0-3.467,0.558-4.508,1.658c-2.183,2.305-1.943,6.623-1.733,10.435c0.062,1.134,0.121,2.206,0.121,3.202 c0,0.107,0.045,0.211,0.11,0.297c-0.328,1.8-0.597,3.896-0.787,6.332c-0.65-0.053-1.314-0.086-2.001-0.086 c-0.643,0-1.267,0.03-1.88,0.078c-0.143-5.048-0.57-8.967-1.168-12c0.012-0.895,0.058-1.834,0.112-2.834 c0.21-3.81,0.446-8.128-1.734-10.433c-1.041-1.101-2.559-1.658-4.508-1.658c-7.328,0-11.096-5.067-11.132-5.118 c-0.128-0.175-0.354-0.249-0.56-0.182S1.144,0.283,1.144,0.5c0,2.173-0.158,4.184-0.312,6.128 c-0.366,4.664-0.655,8.348,1.641,10.644C5.373,20.168,16.378,20.97,18.451,21.099z M25.916,22.373 c-0.198-3.609-0.424-7.699,1.462-9.69c0.856-0.905,2.094-1.345,3.78-1.345c5.822,0,9.484-2.913,11.058-4.515 c0.047,1.738,0.178,3.397,0.295,4.896c0.346,4.408,0.62,7.889-1.353,9.859c-2.438,2.44-11.978,3.294-14.822,3.5 c1.131-5.429,2.763-7.573,3.859-8.406c1.043-0.792,1.828-0.629,1.875-0.617c0.263,0.069,0.535-0.089,0.606-0.354 c0.07-0.267-0.087-0.542-0.354-0.613c-0.051-0.013-1.229-0.315-2.666,0.736c-1.235,0.906-2.643,2.804-3.737,6.682 C25.92,22.462,25.918,22.419,25.916,22.373z M19.512,33.565c0.012,0.689,0.02,1.398,0.021,2.135 c-1.776-0.297-2.731-0.811-2.731-1.068S17.75,33.86,19.512,33.565z M20.533,35.829c-0.001-0.824-0.01-1.619-0.023-2.395 c0.563-0.057,1.168-0.096,1.852-0.096c0.708,0,1.333,0.041,1.911,0.102c-0.047,0.729-0.09,1.477-0.121,2.262 c-0.002,0.045,0.012,0.087,0.021,0.129c-0.552,0.053-1.144,0.092-1.811,0.092C21.689,35.923,21.09,35.884,20.533,35.829z M25.269,33.575c1.729,0.297,2.655,0.801,2.655,1.057c0,0.263-0.969,0.781-2.771,1.075C25.185,34.966,25.225,34.263,25.269,33.575 z M33.486,38.257c0,2.756-5.094,5.084-11.126,5.084c-6.03,0-11.125-2.328-11.125-5.084c0-1.668,1.875-3.177,4.688-4.108 C15.847,34.3,15.8,34.462,15.8,34.632c0,1.574,3.4,2.293,6.561,2.293c3.162,0,6.562-0.718,6.562-2.293 c0-0.172-0.047-0.332-0.124-0.483C31.611,35.08,33.486,36.589,33.486,38.257z M1.833,6.708C1.951,5.209,2.083,3.55,2.128,1.812 c1.573,1.602,5.234,4.514,11.057,4.514c1.688,0,2.925,0.44,3.781,1.345c1.79,1.891,1.678,5.668,1.491,9.133 c-1.024-3.299-2.288-5.038-3.449-5.926c-1.477-1.131-2.701-0.815-2.754-0.801c-0.263,0.071-0.417,0.339-0.35,0.604 c0.067,0.264,0.335,0.425,0.604,0.363c0.035-0.008,0.861-0.188,1.948,0.672c1.125,0.891,2.702,3.066,3.799,8.366 c-2.507-0.17-12.559-1.003-15.071-3.516C1.212,14.594,1.486,11.113,1.833,6.708z"/> <path d="M27.208,37.913c-0.188,0.199-0.181,0.518,0.021,0.707l1.5,1.416c0.096,0.092,0.219,0.137,0.342,0.137 c0.135,0,0.267-0.053,0.365-0.155c0.188-0.201,0.18-0.519-0.021-0.707l-1.5-1.416C27.714,37.703,27.399,37.714,27.208,37.913z"/> </g> </g> </g>
</svg>