<!DOCTYPE svg PUBLIC "-//W3C//DTD SVG 1.1//EN" "http://www.w3.org/Graphics/SVG/1.1/DTD/svg11.dtd">
<!-- Uploaded to: SVG Repo, www.svgrepo.com, Transformed by: SVG Repo Mixer Tools -->
<svg fill="#173f35" height="800px" width="800px" version="1.1" id="Layer_1" xmlns="http://www.w3.org/2000/svg" xmlns:xlink="http://www.w3.org/1999/xlink" viewBox="0 0 512 512" xml:space="preserve" stroke="#173f35">
<g id="SVGRepo_bgCarrier" stroke-width="0"/>
<g id="SVGRepo_tracerCarrier" stroke-linecap="round" stroke-linejoin="round"/>
<g id="SVGRepo_iconCarrier"> <g> <g> <path d="M368.078,149.247c-32.254-87.71-64.303-118.832-81.947-118.832c-17.644,0-49.694,31.122-81.948,118.832 c-25.92,70.487-41.411,150.149-41.411,186.443c0,34.128,14.056,71.554,37.602,100.115c14.096,17.097,43.981,45.779,85.758,45.779 c41.778,0,71.662-28.682,85.756-45.779c23.546-28.56,37.602-65.986,37.602-100.115 C409.49,299.397,393.999,219.735,368.078,149.247z M360.153,426.132c-12.391,15.029-38.484,40.244-74.022,40.244 c-35.537,0-61.632-25.215-74.023-40.244c-21.37-25.922-34.129-59.733-34.129-90.441c0-34.962,15.14-112.297,40.476-181.193 c17.873-48.603,34.042-75.066,44.46-88.708c12.632-16.543,21.041-20.166,23.215-20.166c2.175,0,10.583,3.622,23.215,20.166 c10.416,13.641,26.586,40.104,44.459,88.708c25.336,68.896,40.476,146.23,40.476,181.193 C394.282,366.4,381.523,400.21,360.153,426.132z"/> </g> </g> <g> <g> <path d="M335.977,260.697c-6.197-21.776-12.84-39.293-19.746-52.066c-9.395-17.377-19.242-25.823-30.102-25.823 c-10.859,0-20.707,8.446-30.102,25.823c-6.906,12.773-13.548,30.29-19.744,52.066c-11.061,38.88-17.908,81.848-17.908,99.362 c0,37.361,30.395,67.754,67.753,67.754c13.66,0,26.827-4.047,38.08-11.706c3.472-2.362,4.372-7.093,2.007-10.564 c-2.362-3.472-7.092-4.371-10.564-2.007c-8.719,5.934-18.928,9.07-29.523,9.07c-28.973,0-52.545-23.572-52.545-52.546 c0-16.563,6.962-58.769,17.327-95.2c14.037-49.338,27.744-66.844,35.219-66.844c7.474,0,21.183,17.506,35.219,66.844 c10.365,36.43,17.327,78.637,17.327,95.2c0,10.238-2.943,20.158-8.512,28.686c-2.296,3.517-1.306,8.228,2.21,10.525 c3.516,2.294,8.227,1.307,10.525-2.21c7.187-11.008,10.986-23.803,10.986-37.001C353.885,342.545,347.039,299.577,335.977,260.697 z"/> </g> </g> <g> <g> <path d="M396.626,138.75C373.348,75.453,335.284,0,286.131,0C248.974,0,211.98,23.466,176.18,69.746 c-28.117,36.347-54.799,86.622-75.131,141.568c-1.458,3.939,0.488,8.508,4.493,9.771c4.002,1.261,8.635-1.424,9.771-4.493 c19.81-53.536,45.698-102.381,72.896-137.539c11.984-15.492,24.182-28.268,36.407-38.221 c-20.12,27.341-36.631,64.341-48.979,97.92c-28.112,76.443-43.699,158.525-43.28,196.941 c0.968,88.75,59.933,136.49,68.295,143.457c-67.729-29.137-113.347-89.47-113.347-143.457c0-14.283,3.038-34.105,8.783-57.323 c1.009-4.077-1.478-8.199-5.555-9.208c-4.078-1.005-8.198,1.477-9.208,5.555c-6.038,24.396-9.229,45.48-9.229,60.977 c0,42.063,23.003,85.946,63.111,120.394C177.191,492.141,230.788,512,286.131,512c40.214,0,79.004-20.189,109.225-56.847 c28.311-34.341,44.548-77.884,44.548-119.462C439.905,297.272,424.737,215.193,396.626,138.75z M286.131,496.792 c-78.038,0-138.568-86.602-138.568-161.102c0-37.105,14.841-116.899,42.346-191.691c30.099-81.849,65.17-128.792,96.222-128.792 s66.123,46.943,96.221,128.791c27.504,74.793,42.345,154.586,42.345,191.691C424.697,410.19,364.168,496.792,286.131,496.792z"/> </g> </g> <g> <g> <path d="M102.051,231.111c-3.99-1.302-8.284,0.884-9.583,4.879c-1.45,4.456-2.86,8.966-4.192,13.402 c-1.207,4.022,1.047,8.359,5.098,9.468c4.256,1.166,8.481-1.804,9.469-5.097c1.298-4.327,2.674-8.723,4.087-13.07 C108.229,236.701,106.046,232.409,102.051,231.111z"/> </g> </g> <g> <g> <path d="M361.848,232.175c-6.434-25.179-14.15-50.225-22.317-72.43c-1.449-3.941-5.821-5.967-9.761-4.512 c-3.941,1.45-5.961,5.82-4.512,9.761c7.991,21.728,15.549,46.26,21.856,70.946c0.878,3.437,3.05,6.512,9.249,5.484 C360.507,240.738,362.887,236.244,361.848,232.175z"/> </g> </g> <g> <g> <path d="M370.39,269.332c-0.941-4.633-1.965-9.422-3.043-14.233c-0.917-4.098-4.983-6.68-9.082-5.758 c-4.098,0.918-6.675,4.984-5.758,9.082c1.055,4.711,2.057,9.401,2.979,13.936c0.732,3.604,3.422,6.846,8.967,5.938 C368.596,277.619,371.226,273.449,370.39,269.332z"/> </g> </g> <g> <g> <path d="M268.989,371.529c-1.419-1.419-3.377-2.231-5.384-2.231c-1.998,0-3.955,0.811-5.373,2.231 c-1.419,1.409-2.231,3.376-2.231,5.373c0,2.007,0.811,3.964,2.231,5.384c1.419,1.409,3.375,2.22,5.373,2.22 c2.006,0,3.964-0.811,5.384-2.22c1.409-1.419,2.22-3.376,2.22-5.384C271.209,374.905,270.399,372.948,268.989,371.529z"/> </g> </g> <g> <g> <path d="M294.842,337.959c-1.419-1.419-3.377-2.231-5.384-2.231c-1.998,0-3.955,0.811-5.373,2.231 c-1.419,1.409-2.231,3.376-2.231,5.373c0,2.007,0.811,3.964,2.231,5.384c1.419,1.409,3.375,2.22,5.373,2.22 c2.006,0,3.964-0.812,5.384-2.22c1.409-1.419,2.22-3.376,2.22-5.384C297.062,341.335,296.252,339.378,294.842,337.959z"/> </g> </g> <g> <g> <path d="M329.82,337.959c-1.419-1.419-3.377-2.231-5.384-2.231c-1.998,0-3.955,0.811-5.373,2.231 c-1.419,1.409-2.231,3.376-2.231,5.373c0,2.007,0.811,3.964,2.231,5.384c1.419,1.409,3.375,2.22,5.373,2.22 c2.006,0,3.964-0.812,5.384-2.22c1.409-1.419,2.22-3.376,2.22-5.384C332.041,341.335,331.231,339.378,329.82,337.959z"/> </g> </g> <g> <g> <path d="M261.385,322.751c-1.419-1.419-3.377-2.23-5.384-2.23c-1.998,0-3.955,0.811-5.373,2.23 c-1.419,1.409-2.23,3.376-2.23,5.373c0,2.007,0.811,3.964,2.23,5.384c1.419,1.409,3.375,2.22,5.373,2.22 c2.006,0,3.964-0.812,5.384-2.22c1.409-1.419,2.22-3.376,2.22-5.384C263.605,326.127,262.795,324.17,261.385,322.751z"/> </g> </g> <g> <g> <path d="M306.309,292.186c-1.419-1.419-3.377-2.23-5.384-2.23c-1.998,0-3.955,0.811-5.373,2.23 c-1.419,1.409-2.231,3.376-2.231,5.373c0,2.007,0.811,3.964,2.231,5.384c1.419,1.409,3.375,2.22,5.373,2.22 c2.006,0,3.964-0.811,5.384-2.22c1.409-1.419,2.22-3.376,2.22-5.384C308.529,295.562,307.719,293.605,306.309,292.186z"/> </g> </g> <g> <g> <path d="M310.05,379.132c-1.419-1.419-3.377-2.23-5.384-2.23c-1.998,0-3.955,0.811-5.373,2.23 c-1.419,1.409-2.231,3.376-2.231,5.373c0,2.007,0.811,3.964,2.231,5.384c1.419,1.409,3.375,2.22,5.373,2.22 c2.006,0,3.964-0.811,5.384-2.22c1.409-1.419,2.22-3.376,2.22-5.384C312.27,382.509,311.46,380.552,310.05,379.132z"/> </g> </g> <g> <g> <path d="M302.446,238.132c-1.419-1.419-3.377-2.231-5.384-2.231c-1.998,0-3.955,0.811-5.373,2.231 c-1.419,1.409-2.23,3.376-2.23,5.373c0,2.007,0.811,3.964,2.23,5.384c1.419,1.409,3.375,2.22,5.373,2.22 c2.006,0,3.964-0.812,5.384-2.22c1.409-1.419,2.22-3.376,2.22-5.384C304.666,241.508,303.856,239.551,302.446,238.132z"/> </g> </g> <g> <g> <path d="M276.593,273.228c-1.419-1.419-3.377-2.231-5.384-2.231c-1.998,0-3.955,0.811-5.373,2.231 c-1.419,1.409-2.231,3.376-2.231,5.373c0,2.007,0.811,3.964,2.231,5.384c1.419,1.409,3.375,2.22,5.373,2.22 c2.006,0,3.964-0.812,5.384-2.22c1.409-1.419,2.22-3.376,2.22-5.384C278.813,276.604,278.003,274.647,276.593,273.228z"/> </g> </g> </g>
</svg>