<!DOCTYPE svg PUBLIC "-//W3C//DTD SVG 1.1//EN" "http://www.w3.org/Graphics/SVG/1.1/DTD/svg11.dtd">
<!-- Uploaded to: SVG Repo, www.svgrepo.com, Transformed by: SVG Repo Mixer Tools -->
<svg fill="#173f35" height="800px" width="800px" version="1.1" id="Layer_1" xmlns="http://www.w3.org/2000/svg" xmlns:xlink="http://www.w3.org/1999/xlink" viewBox="0 0 512 512" xml:space="preserve" stroke="#173f35">
<g id="SVGRepo_bgCarrier" stroke-width="0"/>
<g id="SVGRepo_tracerCarrier" stroke-linecap="round" stroke-linejoin="round" stroke="#CCCCCC" stroke-width="6.144"> <g> <g> <g> <path d="M376.051,268.016c10.088-73.513,10.892-148.054,2.387-221.679c-0.011-0.094-0.024-0.19-0.037-0.284 C374.809,20.66,351.196,0,325.761,0c-25.434,0-49.049,20.659-52.642,46.053c-0.013,0.094-0.026,0.19-0.037,0.284 c-6.872,59.494-7.666,119.838-2.373,179.576c-9.786-0.722-19.631-0.722-29.417,0c5.293-59.737,4.5-120.08-2.373-179.576 c-0.011-0.094-0.024-0.19-0.037-0.284C235.288,20.659,211.674,0,186.24,0s-49.049,20.66-52.642,46.053 c-0.013,0.094-0.026,0.19-0.037,0.284c-8.504,73.622-7.701,148.163,2.387,221.679c-30.941,26.688-48.554,63.04-48.554,100.67 C87.395,447.71,163.031,512,256,512s168.605-64.29,168.605-143.314C424.605,331.057,406.993,294.705,376.051,268.016z M256,489.519c-80.573,0-146.125-54.205-146.125-120.834c0-33.195,16.004-64.167,45.064-87.209 c3.137-2.486,4.713-6.453,4.142-10.415c-10.631-73.57-11.709-148.253-3.205-221.99c2.082-14.18,16.236-26.59,30.364-26.59 c14.129,0,28.284,12.412,30.365,26.592c7.198,62.415,7.532,125.786,0.991,188.345c-0.361,3.452,0.892,6.877,3.397,9.279 c2.503,2.402,5.978,3.514,9.41,3.011c16.833-2.464,34.364-2.464,51.193,0c3.433,0.502,6.907-0.608,9.412-3.011 c2.504-2.403,3.758-5.828,3.397-9.279c-6.54-62.563-6.206-125.932,0.991-188.345c2.081-14.181,16.236-26.592,30.365-26.592 c14.128,0,28.282,12.41,30.364,26.59c8.505,73.739,7.426,148.423-3.205,221.991c-0.572,3.961,1.005,7.928,4.142,10.415 c29.06,23.043,45.064,54.014,45.064,87.209C402.125,435.314,336.573,489.519,256,489.519z"/> <path d="M327.756,122.339c-6.207,0.106-11.153,5.222-11.048,11.429c0.423,24.885-0.303,50.087-2.159,74.907 c-0.463,6.191,4.18,11.584,10.37,12.047c0.285,0.021,0.569,0.031,0.851,0.031c5.827,0,10.755-4.497,11.197-10.402 c1.907-25.502,2.654-51.398,2.219-76.966C339.08,127.179,333.953,122.253,327.756,122.339z"/> <path d="M314.577,87.09c0.433,5.912,5.363,10.421,11.199,10.421c0.275,0,0.553-0.01,0.832-0.03 c6.191-0.453,10.842-5.839,10.389-12.031l-0.025-0.337c-0.453-6.191-5.82-10.863-12.031-10.389 c-6.191,0.453-10.842,5.839-10.389,12.031L314.577,87.09z"/> <path d="M197.452,208.675c-3.027-40.467-3.028-81.482-0.004-121.904c0.463-6.19-4.18-11.584-10.37-12.047 c-6.192-0.473-11.584,4.179-12.047,10.37c-3.107,41.534-3.106,83.677,0.005,125.258c0.442,5.906,5.37,10.402,11.196,10.402 c0.281,0,0.565-0.01,0.85-0.031C193.272,220.26,197.916,214.866,197.452,208.675z"/> <path d="M269.998,391.931L256,401.262l-13.998-9.332c-5.165-3.443-12.143-2.048-15.587,3.117 c-3.443,5.165-2.048,12.144,3.117,15.587l15.227,10.151v7.473c0,6.208,5.032,11.24,11.24,11.24c6.208,0,11.24-5.032,11.24-11.24 v-7.473l15.227-10.151c5.165-3.443,6.561-10.422,3.117-15.587C282.143,389.883,275.164,388.487,269.998,391.931z"/> <circle cx="206.924" cy="340.965" r="11.24"/> <circle cx="305.085" cy="340.965" r="11.24"/> </g> </g> </g> </g>
<g id="SVGRepo_iconCarrier"> <g> <g> <g> <path d="M376.051,268.016c10.088-73.513,10.892-148.054,2.387-221.679c-0.011-0.094-0.024-0.19-0.037-0.284 C374.809,20.66,351.196,0,325.761,0c-25.434,0-49.049,20.659-52.642,46.053c-0.013,0.094-0.026,0.19-0.037,0.284 c-6.872,59.494-7.666,119.838-2.373,179.576c-9.786-0.722-19.631-0.722-29.417,0c5.293-59.737,4.5-120.08-2.373-179.576 c-0.011-0.094-0.024-0.19-0.037-0.284C235.288,20.659,211.674,0,186.24,0s-49.049,20.66-52.642,46.053 c-0.013,0.094-0.026,0.19-0.037,0.284c-8.504,73.622-7.701,148.163,2.387,221.679c-30.941,26.688-48.554,63.04-48.554,100.67 C87.395,447.71,163.031,512,256,512s168.605-64.29,168.605-143.314C424.605,331.057,406.993,294.705,376.051,268.016z M256,489.519c-80.573,0-146.125-54.205-146.125-120.834c0-33.195,16.004-64.167,45.064-87.209 c3.137-2.486,4.713-6.453,4.142-10.415c-10.631-73.57-11.709-148.253-3.205-221.99c2.082-14.18,16.236-26.59,30.364-26.59 c14.129,0,28.284,12.412,30.365,26.592c7.198,62.415,7.532,125.786,0.991,188.345c-0.361,3.452,0.892,6.877,3.397,9.279 c2.503,2.402,5.978,3.514,9.41,3.011c16.833-2.464,34.364-2.464,51.193,0c3.433,0.502,6.907-0.608,9.412-3.011 c2.504-2.403,3.758-5.828,3.397-9.279c-6.54-62.563-6.206-125.932,0.991-188.345c2.081-14.181,16.236-26.592,30.365-26.592 c14.128,0,28.282,12.41,30.364,26.59c8.505,73.739,7.426,148.423-3.205,221.991c-0.572,3.961,1.005,7.928,4.142,10.415 c29.06,23.043,45.064,54.014,45.064,87.209C402.125,435.314,336.573,489.519,256,489.519z"/> <path d="M327.756,122.339c-6.207,0.106-11.153,5.222-11.048,11.429c0.423,24.885-0.303,50.087-2.159,74.907 c-0.463,6.191,4.18,11.584,10.37,12.047c0.285,0.021,0.569,0.031,0.851,0.031c5.827,0,10.755-4.497,11.197-10.402 c1.907-25.502,2.654-51.398,2.219-76.966C339.08,127.179,333.953,122.253,327.756,122.339z"/> <path d="M314.577,87.09c0.433,5.912,5.363,10.421,11.199,10.421c0.275,0,0.553-0.01,0.832-0.03 c6.191-0.453,10.842-5.839,10.389-12.031l-0.025-0.337c-0.453-6.191-5.82-10.863-12.031-10.389 c-6.191,0.453-10.842,5.839-10.389,12.031L314.577,87.09z"/> <path d="M197.452,208.675c-3.027-40.467-3.028-81.482-0.004-121.904c0.463-6.19-4.18-11.584-10.37-12.047 c-6.192-0.473-11.584,4.179-12.047,10.37c-3.107,41.534-3.106,83.677,0.005,125.258c0.442,5.906,5.37,10.402,11.196,10.402 c0.281,0,0.565-0.01,0.85-0.031C193.272,220.26,197.916,214.866,197.452,208.675z"/> <path d="M269.998,391.931L256,401.262l-13.998-9.332c-5.165-3.443-12.143-2.048-15.587,3.117 c-3.443,5.165-2.048,12.144,3.117,15.587l15.227,10.151v7.473c0,6.208,5.032,11.24,11.24,11.24c6.208,0,11.24-5.032,11.24-11.24 v-7.473l15.227-10.151c5.165-3.443,6.561-10.422,3.117-15.587C282.143,389.883,275.164,388.487,269.998,391.931z"/> <circle cx="206.924" cy="340.965" r="11.24"/> <circle cx="305.085" cy="340.965" r="11.24"/> </g> </g> </g> </g>
</svg>